<mxfile host="app.diagrams.net" modified="2023-02-28T02:06:07.928Z" agent="5.0 (Windows NT 10.0; Win64; x64) AppleWebKit/537.36 (KHTML, like Gecko) Chrome/110.0.0.0 Safari/537.36" etag="Miy7uzDttncQo5qKwV0J" version="20.8.23" type="github">
  <diagram name="Page-1" id="0783ab3e-0a74-02c8-0abd-f7b4e66b4bec">
    <mxGraphModel dx="993" dy="588" grid="0" gridSize="10" guides="1" tooltips="1" connect="1" arrows="1" fold="1" page="1" pageScale="1" pageWidth="850" pageHeight="1100" background="none" math="0" shadow="0">
      <root>
        <mxCell id="0" />
        <mxCell id="1" parent="0" />
        <mxCell id="ikcJGkdlfP02gp2Gb70r-1" value="服务发现与治理模块" style="swimlane;whiteSpace=wrap;html=1;startSize=23;" vertex="1" parent="1">
          <mxGeometry x="120" y="150" width="590" height="418" as="geometry" />
        </mxCell>
        <mxCell id="m8eOqksVXavTXWIreniO-1" value="" style="ellipse;whiteSpace=wrap;html=1;rounded=0;shadow=0;comic=0;labelBackgroundColor=none;strokeWidth=1;fillColor=#000000;fontFamily=Verdana;fontSize=12;align=center;" parent="ikcJGkdlfP02gp2Gb70r-1" vertex="1">
          <mxGeometry x="62.5" y="52" width="40" height="40" as="geometry" />
        </mxCell>
        <mxCell id="m8eOqksVXavTXWIreniO-2" value="" style="edgeStyle=orthogonalEdgeStyle;rounded=0;orthogonalLoop=1;jettySize=auto;html=1;exitX=0.5;exitY=1;exitDx=0;exitDy=0;" parent="ikcJGkdlfP02gp2Gb70r-1" source="m8eOqksVXavTXWIreniO-1" target="m8eOqksVXavTXWIreniO-5" edge="1">
          <mxGeometry relative="1" as="geometry">
            <mxPoint x="82.5" y="162" as="sourcePoint" />
          </mxGeometry>
        </mxCell>
        <mxCell id="m8eOqksVXavTXWIreniO-37" value="未通过定期健康检查" style="edgeStyle=orthogonalEdgeStyle;rounded=0;orthogonalLoop=1;jettySize=auto;html=1;exitX=0.5;exitY=0;exitDx=0;exitDy=0;entryX=0.5;entryY=1;entryDx=0;entryDy=0;" parent="ikcJGkdlfP02gp2Gb70r-1" source="m8eOqksVXavTXWIreniO-34" target="m8eOqksVXavTXWIreniO-36" edge="1">
          <mxGeometry relative="1" as="geometry" />
        </mxCell>
        <mxCell id="m8eOqksVXavTXWIreniO-38" value="" style="edgeStyle=orthogonalEdgeStyle;rounded=0;orthogonalLoop=1;jettySize=auto;html=1;" parent="ikcJGkdlfP02gp2Gb70r-1" source="m8eOqksVXavTXWIreniO-36" target="m8eOqksVXavTXWIreniO-6" edge="1">
          <mxGeometry relative="1" as="geometry" />
        </mxCell>
        <mxCell id="m8eOqksVXavTXWIreniO-36" value="删除注册信息" style="rounded=1;whiteSpace=wrap;html=1;shadow=0;comic=0;labelBackgroundColor=none;strokeWidth=1;fontFamily=Verdana;fontSize=12;align=center;arcSize=50;" parent="ikcJGkdlfP02gp2Gb70r-1" vertex="1">
          <mxGeometry x="307.5" y="57" width="100" height="30" as="geometry" />
        </mxCell>
        <mxCell id="m8eOqksVXavTXWIreniO-43" value="" style="edgeStyle=orthogonalEdgeStyle;rounded=0;orthogonalLoop=1;jettySize=auto;html=1;" parent="ikcJGkdlfP02gp2Gb70r-1" source="m8eOqksVXavTXWIreniO-41" target="m8eOqksVXavTXWIreniO-42" edge="1">
          <mxGeometry relative="1" as="geometry" />
        </mxCell>
        <mxCell id="m8eOqksVXavTXWIreniO-44" value="" style="edgeStyle=orthogonalEdgeStyle;rounded=0;orthogonalLoop=1;jettySize=auto;html=1;" parent="ikcJGkdlfP02gp2Gb70r-1" source="m8eOqksVXavTXWIreniO-42" target="m8eOqksVXavTXWIreniO-36" edge="1">
          <mxGeometry relative="1" as="geometry" />
        </mxCell>
        <mxCell id="m8eOqksVXavTXWIreniO-42" value="手动注销服务" style="rounded=1;whiteSpace=wrap;html=1;shadow=0;comic=0;labelBackgroundColor=none;strokeWidth=1;fontFamily=Verdana;fontSize=12;align=center;arcSize=50;" parent="ikcJGkdlfP02gp2Gb70r-1" vertex="1">
          <mxGeometry x="457.5" y="57" width="100" height="30" as="geometry" />
        </mxCell>
        <mxCell id="m8eOqksVXavTXWIreniO-8" value="注册微服务" style="rounded=1;whiteSpace=wrap;html=1;shadow=0;comic=0;labelBackgroundColor=none;strokeWidth=1;fontFamily=Verdana;fontSize=12;align=center;arcSize=50;" parent="ikcJGkdlfP02gp2Gb70r-1" vertex="1">
          <mxGeometry x="32.5" y="346" width="100" height="30" as="geometry" />
        </mxCell>
        <mxCell id="m8eOqksVXavTXWIreniO-5" value="" style="rhombus;whiteSpace=wrap;html=1;" parent="ikcJGkdlfP02gp2Gb70r-1" vertex="1">
          <mxGeometry x="57.5" y="202" width="50" height="38" as="geometry" />
        </mxCell>
        <mxCell id="m8eOqksVXavTXWIreniO-3" value="注册中心启动" style="edgeStyle=orthogonalEdgeStyle;rounded=0;orthogonalLoop=1;jettySize=auto;html=1;exitX=0.5;exitY=1;exitDx=0;exitDy=0;entryX=0.5;entryY=0;entryDx=0;entryDy=0;" parent="ikcJGkdlfP02gp2Gb70r-1" source="m8eOqksVXavTXWIreniO-5" edge="1" target="m8eOqksVXavTXWIreniO-8">
          <mxGeometry relative="1" as="geometry">
            <mxPoint x="82.5" y="244" as="targetPoint" />
          </mxGeometry>
        </mxCell>
        <mxCell id="m8eOqksVXavTXWIreniO-14" value="" style="rhombus;whiteSpace=wrap;html=1;" parent="ikcJGkdlfP02gp2Gb70r-1" vertex="1">
          <mxGeometry x="197.5" y="343" width="50" height="38" as="geometry" />
        </mxCell>
        <mxCell id="m8eOqksVXavTXWIreniO-7" style="edgeStyle=orthogonalEdgeStyle;rounded=0;orthogonalLoop=1;jettySize=auto;html=1;exitX=1;exitY=0.5;exitDx=0;exitDy=0;entryX=0;entryY=0.5;entryDx=0;entryDy=0;" parent="ikcJGkdlfP02gp2Gb70r-1" source="m8eOqksVXavTXWIreniO-8" target="m8eOqksVXavTXWIreniO-14" edge="1">
          <mxGeometry relative="1" as="geometry" />
        </mxCell>
        <mxCell id="m8eOqksVXavTXWIreniO-16" value="写入注册信息" style="rounded=1;whiteSpace=wrap;html=1;shadow=0;comic=0;labelBackgroundColor=none;strokeWidth=1;fontFamily=Verdana;fontSize=12;align=center;arcSize=50;" parent="ikcJGkdlfP02gp2Gb70r-1" vertex="1">
          <mxGeometry x="307.5" y="347" width="100" height="30" as="geometry" />
        </mxCell>
        <mxCell id="m8eOqksVXavTXWIreniO-45" value="" style="shape=mxgraph.bpmn.shape;html=1;verticalLabelPosition=bottom;labelBackgroundColor=#ffffff;verticalAlign=top;perimeter=ellipsePerimeter;outline=end;symbol=terminate;rounded=0;shadow=0;comic=0;strokeWidth=1;fontFamily=Verdana;fontSize=12;align=center;" parent="ikcJGkdlfP02gp2Gb70r-1" vertex="1">
          <mxGeometry x="487.5" y="341" width="40" height="40" as="geometry" />
        </mxCell>
        <mxCell id="m8eOqksVXavTXWIreniO-11" style="edgeStyle=orthogonalEdgeStyle;rounded=0;orthogonalLoop=1;jettySize=auto;html=1;exitX=1;exitY=0.5;exitDx=0;exitDy=0;entryX=0;entryY=0.5;entryDx=0;entryDy=0;" parent="ikcJGkdlfP02gp2Gb70r-1" source="m8eOqksVXavTXWIreniO-14" target="m8eOqksVXavTXWIreniO-16" edge="1">
          <mxGeometry relative="1" as="geometry">
            <mxPoint x="82.5" y="475" as="sourcePoint" />
          </mxGeometry>
        </mxCell>
        <mxCell id="m8eOqksVXavTXWIreniO-12" value="服务不存在" style="edgeLabel;html=1;align=center;verticalAlign=middle;resizable=0;points=[];" parent="m8eOqksVXavTXWIreniO-11" vertex="1" connectable="0">
          <mxGeometry x="-0.25" y="-3" relative="1" as="geometry">
            <mxPoint x="3" y="12" as="offset" />
          </mxGeometry>
        </mxCell>
        <mxCell id="m8eOqksVXavTXWIreniO-10" value="抛出异常" style="rounded=1;whiteSpace=wrap;html=1;shadow=0;comic=0;labelBackgroundColor=none;strokeWidth=1;fontFamily=Verdana;fontSize=12;align=center;arcSize=50;" parent="ikcJGkdlfP02gp2Gb70r-1" vertex="1">
          <mxGeometry x="171.5" y="205" width="100" height="30" as="geometry" />
        </mxCell>
        <mxCell id="m8eOqksVXavTXWIreniO-34" value="" style="rhombus;whiteSpace=wrap;html=1;fontStyle=1" parent="ikcJGkdlfP02gp2Gb70r-1" vertex="1">
          <mxGeometry x="331.5" y="205" width="50" height="38" as="geometry" />
        </mxCell>
        <mxCell id="m8eOqksVXavTXWIreniO-39" style="edgeStyle=orthogonalEdgeStyle;rounded=0;orthogonalLoop=1;jettySize=auto;html=1;exitX=1;exitY=0.5;exitDx=0;exitDy=0;entryX=0;entryY=0.5;entryDx=0;entryDy=0;" parent="ikcJGkdlfP02gp2Gb70r-1" source="m8eOqksVXavTXWIreniO-34" target="m8eOqksVXavTXWIreniO-41" edge="1">
          <mxGeometry relative="1" as="geometry">
            <mxPoint x="406.5" y="224" as="sourcePoint" />
          </mxGeometry>
        </mxCell>
        <mxCell id="m8eOqksVXavTXWIreniO-40" value="通过检查" style="edgeLabel;html=1;align=center;verticalAlign=middle;resizable=0;points=[];" parent="m8eOqksVXavTXWIreniO-39" vertex="1" connectable="0">
          <mxGeometry x="-0.5935" y="-1" relative="1" as="geometry">
            <mxPoint x="18" as="offset" />
          </mxGeometry>
        </mxCell>
        <mxCell id="m8eOqksVXavTXWIreniO-41" value="提供服务发现" style="rounded=1;whiteSpace=wrap;html=1;shadow=0;comic=0;labelBackgroundColor=none;strokeWidth=1;fontFamily=Verdana;fontSize=12;align=center;arcSize=50;" parent="ikcJGkdlfP02gp2Gb70r-1" vertex="1">
          <mxGeometry x="456.5" y="209" width="100" height="30" as="geometry" />
        </mxCell>
        <mxCell id="m8eOqksVXavTXWIreniO-13" value="服务已存在" style="edgeStyle=orthogonalEdgeStyle;rounded=0;orthogonalLoop=1;jettySize=auto;html=1;exitX=0.5;exitY=0;exitDx=0;exitDy=0;entryX=0.5;entryY=1;entryDx=0;entryDy=0;" parent="ikcJGkdlfP02gp2Gb70r-1" source="m8eOqksVXavTXWIreniO-14" target="m8eOqksVXavTXWIreniO-10" edge="1">
          <mxGeometry relative="1" as="geometry">
            <mxPoint x="172.5" y="331.0000000000001" as="targetPoint" />
          </mxGeometry>
        </mxCell>
        <mxCell id="m8eOqksVXavTXWIreniO-4" value="未启动" style="edgeStyle=orthogonalEdgeStyle;rounded=0;orthogonalLoop=1;jettySize=auto;html=1;exitX=1;exitY=0.5;exitDx=0;exitDy=0;entryX=0;entryY=0.5;entryDx=0;entryDy=0;" parent="ikcJGkdlfP02gp2Gb70r-1" source="m8eOqksVXavTXWIreniO-5" target="m8eOqksVXavTXWIreniO-10" edge="1">
          <mxGeometry relative="1" as="geometry">
            <mxPoint x="162.5" y="163" as="targetPoint" />
          </mxGeometry>
        </mxCell>
        <mxCell id="m8eOqksVXavTXWIreniO-35" style="edgeStyle=orthogonalEdgeStyle;rounded=0;orthogonalLoop=1;jettySize=auto;html=1;exitX=0.5;exitY=0;exitDx=0;exitDy=0;entryX=0.5;entryY=1;entryDx=0;entryDy=0;" parent="ikcJGkdlfP02gp2Gb70r-1" source="m8eOqksVXavTXWIreniO-16" target="m8eOqksVXavTXWIreniO-34" edge="1">
          <mxGeometry relative="1" as="geometry" />
        </mxCell>
        <mxCell id="m8eOqksVXavTXWIreniO-46" value="" style="edgeStyle=orthogonalEdgeStyle;rounded=0;orthogonalLoop=1;jettySize=auto;html=1;" parent="ikcJGkdlfP02gp2Gb70r-1" source="m8eOqksVXavTXWIreniO-41" target="m8eOqksVXavTXWIreniO-45" edge="1">
          <mxGeometry relative="1" as="geometry" />
        </mxCell>
        <mxCell id="m8eOqksVXavTXWIreniO-6" value="" style="shape=mxgraph.bpmn.shape;html=1;verticalLabelPosition=bottom;labelBackgroundColor=#ffffff;verticalAlign=top;perimeter=ellipsePerimeter;outline=end;symbol=terminate;rounded=0;shadow=0;comic=0;strokeWidth=1;fontFamily=Verdana;fontSize=12;align=center;" parent="ikcJGkdlfP02gp2Gb70r-1" vertex="1">
          <mxGeometry x="201.5" y="52" width="40" height="40" as="geometry" />
        </mxCell>
        <mxCell id="m8eOqksVXavTXWIreniO-9" style="edgeStyle=orthogonalEdgeStyle;rounded=0;orthogonalLoop=1;jettySize=auto;html=1;exitX=0.5;exitY=0;exitDx=0;exitDy=0;entryX=0.5;entryY=1;entryDx=0;entryDy=0;" parent="ikcJGkdlfP02gp2Gb70r-1" target="m8eOqksVXavTXWIreniO-6" edge="1" source="m8eOqksVXavTXWIreniO-10">
          <mxGeometry relative="1" as="geometry">
            <mxPoint x="242.5" y="148" as="sourcePoint" />
            <Array as="points">
              <mxPoint x="221.5" y="148" />
            </Array>
          </mxGeometry>
        </mxCell>
      </root>
    </mxGraphModel>
  </diagram>
</mxfile>
